<svg xmlns="http://www.w3.org/2000/svg" width="18" height="16" viewBox="0 0 18 16">
    <path fill="#4A4A4A" fill-rule="evenodd" d="M8.157 14.984c.223.214.524.333.84.333.31 0 .619-.123.839-.333l6.588-6.31c1-.96 1.55-2.234 1.554-3.586 0-1.355-.55-2.63-1.55-3.589C15.425.541 14.098.014 12.683.014c-1.39 0-2.698.51-3.691 1.436C7.996.52 6.683.007 5.29.007c-1.411 0-2.738.527-3.74 1.482C.55 2.448 0 3.722 0 5.078 0 6.43.554 7.704 1.554 8.663l6.603 6.32zM2.189 2.1C3.017 1.306 4.12.867 5.294.867s2.28.44 3.112 1.236l.271.26c.085.081.198.127.32.127.117 0 .234-.046.318-.127l.264-.253c.832-.797 1.936-1.236 3.113-1.236 1.173 0 2.276.44 3.105 1.233.832.797 1.287 1.854 1.287 2.978 0 1.123-.459 2.18-1.29 2.977l-6.592 6.314c-.107.102-.301.102-.411 0l-6.599-6.32C1.36 7.257.902 6.2.902 5.077c0-1.124.458-2.181 1.287-2.978z"/>
</svg>