<svg xmlns="http://www.w3.org/2000/svg" width="12" height="12" viewBox="0 0 12 12">
    <g fill="none" fill-rule="evenodd">
        <path d="M0 0H16V16H0z" transform="translate(-2 -2)"/>
        <path fill="#4A4A4A" fill-rule="nonzero" d="M4.816 5.94c-1.182 0-2.15.967-2.15 2.15 0 1.182.968 2.149 2.15 2.149.537 0 1.039-.197 1.415-.538l2.758 1.72c-.036.143-.036.286-.036.43 0 1.182.967 2.149 2.15 2.149 1.182 0 2.149-.967 2.149-2.15 0-1.181-.967-2.149-2.15-2.149-.644 0-1.235.287-1.63.753l-2.614-1.63c.09-.233.125-.466.125-.734 0-.27-.054-.538-.143-.77L9.31 5.563c.394.448.968.735 1.612.735 1.182 0 2.15-.968 2.15-2.15S12.105 2 10.923 2s-2.149.967-2.149 2.15c0 .16.018.304.054.447L6.195 6.442c-.376-.305-.86-.502-1.38-.502zm6.269 4.836c.59 0 1.074.484 1.074 1.075 0 .59-.483 1.074-1.074 1.074-.591 0-1.075-.483-1.075-1.074 0-.591.484-1.075 1.075-1.075zm-.18-7.701c.592 0 1.075.483 1.075 1.074 0 .591-.483 1.075-1.075 1.075-.59 0-1.074-.484-1.074-1.075 0-.59.483-1.074 1.074-1.074zM3.741 8.09c0-.591.484-1.075 1.075-1.075S5.89 7.499 5.89 8.09c0 .59-.484 1.074-1.075 1.074S3.74 8.681 3.74 8.09z" transform="translate(-2 -2)"/>
    </g>
</svg>